<svg xmlns="http://www.w3.org/2000/svg" viewBox="0 0 800 220" role="img" aria-label="Danim Hero">
  <defs>
    <!-- Sunset sky gradient -->
    <linearGradient id="sky" x1="0" y1="0" x2="0" y2="1">
      <stop offset="0%"   stop-color="#1C1C3A"/>
      <stop offset="28%"  stop-color="#9B2335"/>
      <stop offset="58%"  stop-color="#CF5C36"/>
      <stop offset="80%"  stop-color="#E8923A"/>
      <stop offset="100%" stop-color="#F4C430"/>
    </linearGradient>

    <!-- Sun glow at horizon -->
    <radialGradient id="sun" cx="50%" cy="100%" r="60%">
      <stop offset="0%"   stop-color="#FFD700" stop-opacity="0.50"/>
      <stop offset="100%" stop-color="#FFD700" stop-opacity="0"/>
    </radialGradient>

    <!-- Contrail gradient: transparent (far) → white (near tail) -->
    <linearGradient id="ct" x1="0" y1="0" x2="1" y2="0">
      <stop offset="0%"   stop-color="white" stop-opacity="0"/>
      <stop offset="100%" stop-color="white" stop-opacity="0.55"/>
    </linearGradient>
  </defs>

  <!-- ══════ Background ══════ -->
  <rect width="800" height="220" fill="url(#sky)"/>
  <ellipse cx="400" cy="218" rx="320" ry="80" fill="url(#sun)"/>

  <!-- ══════ Stars ══════ -->
  <circle cx="42"  cy="22" r="1.3" fill="white">
    <animate attributeName="opacity" values="0.2;1;0.4;1;0.2" dur="3.4s" repeatCount="indefinite"/>
  </circle>
  <circle cx="115" cy="13" r="0.9" fill="white">
    <animate attributeName="opacity" values="0.8;0.2;0.9;0.3;0.8" dur="4.2s" begin="0.5s" repeatCount="indefinite"/>
  </circle>
  <circle cx="198" cy="28" r="1.5" fill="white">
    <animate attributeName="opacity" values="0.3;0.9;0.2;0.7;0.3" dur="2.9s" begin="1.1s" repeatCount="indefinite"/>
  </circle>
  <circle cx="310" cy="17" r="1.0" fill="white">
    <animate attributeName="opacity" values="0.6;0.1;0.8;0.4;0.6" dur="3.8s" begin="0.8s" repeatCount="indefinite"/>
  </circle>
  <circle cx="502" cy="25" r="1.2" fill="white">
    <animate attributeName="opacity" values="0.1;0.9;0.3;0.7;0.1" dur="5.0s" begin="0.3s" repeatCount="indefinite"/>
  </circle>
  <circle cx="612" cy="15" r="0.8" fill="white">
    <animate attributeName="opacity" values="0.7;0.2;0.6;0.1;0.7" dur="3.5s" begin="1.6s" repeatCount="indefinite"/>
  </circle>
  <circle cx="694" cy="31" r="1.4" fill="white">
    <animate attributeName="opacity" values="0.4;1;0.2;0.8;0.4" dur="4.7s" begin="0.9s" repeatCount="indefinite"/>
  </circle>
  <circle cx="762" cy="19" r="1.0" fill="white">
    <animate attributeName="opacity" values="0.9;0.3;0.7;0.2;0.9" dur="2.7s" begin="1.4s" repeatCount="indefinite"/>
  </circle>

  <!-- ══════ Airplane ══════
       Outer group: horizontal flight path + vertical sinusoidal oscillation
       The plane oscillates 7px up/down with a 4s period while moving from x=-90 to x=880.
       Duration 14s → 3.5 full vertical cycles during crossing.
       x(t) = -90 + 970*(t/14)
       y(t) = 61 + 7*sin(2π*t/4)
  -->
  <g opacity="0">
    <animateTransform attributeName="transform" type="translate"
      values="-90,61; -21,68; 49,61; 118,54; 187,61; 257,68; 326,61; 395,54; 464,61; 534,68; 603,61; 672,54; 742,61; 811,68; 880,61"
      keyTimes="0;0.071;0.143;0.214;0.286;0.357;0.429;0.500;0.571;0.643;0.714;0.786;0.857;0.929;1"
      dur="14s" repeatCount="indefinite"/>
    <animate attributeName="opacity"
      values="0;0;1;1;1;1;1;1;1;1;1;1;0;0"
      keyTimes="0;0.04;0.10;0.20;0.35;0.50;0.60;0.70;0.78;0.84;0.90;0.94;0.98;1"
      dur="14s" repeatCount="indefinite"/>

    <!-- Inner group: pitch rotation (±3°) synced to vertical velocity
         pitch(t) = 3 * cos(2π*t/4)  — leads position by 90°
    -->
    <g>
      <animateTransform attributeName="transform" type="rotate"
        values="3;0;-3;0;3;0;-3;0;3;0;-3;0;3;0;-3"
        keyTimes="0;0.071;0.143;0.214;0.286;0.357;0.429;0.500;0.571;0.643;0.714;0.786;0.857;0.929;1"
        dur="14s" repeatCount="indefinite"/>

      <!-- ── Contrail: two thin white lines fading behind the plane ── -->
      <rect x="-158" y="12.2" width="120" height="1.2" rx="0.6" fill="url(#ct)" opacity="0.72"/>
      <rect x="-148" y="14.4" width="110" height="0.9" rx="0.45" fill="url(#ct)" opacity="0.42"/>

      <!-- ── Fuselage (centered at 0,0, nose at +x) ── -->
      <!-- Main body: smooth elongated tube tapering to nose -->
      <path d="
        M34,0
        C32,-5 24,-7 10,-7
        L-28,-6
        C-35,-5.5 -38,-2.5 -38,0
        C-38,2.5 -35,5.5 -28,6
        L10,7
        C24,7 32,5 34,0 Z"
        fill="rgba(245,245,252,0.97)"/>

      <!-- Belly shading (subtle dark bottom half for 3-D look) -->
      <path d="
        M26,1
        C20,4 10,6 -28,6
        C-35,5.5 -38,2.5 -38,0
        C-36,0 -28,0.5 -28,0.5
        L10,1.5
        C18,1.5 24,1.2 26,1 Z"
        fill="rgba(195,195,215,0.45)"/>

      <!-- ── Cockpit windshield ── -->
      <path d="M30,-7 C29,-14 22,-14 21,-7"
        fill="#6BB8D4"
        stroke="rgba(90,148,190,0.55)" stroke-width="0.5"/>

      <!-- ── Main wings (swept back ~30°, below fuselage center) ── -->
      <!-- Top surface -->
      <path d="M4,-6 L-4,-6 L-27,20 L-7,12 Z"
        fill="rgba(225,225,235,0.96)"/>
      <!-- Bottom shade -->
      <path d="M-4,-6 L-27,20 L-20,20 L1,-6 Z"
        fill="rgba(190,190,208,0.50)"/>
      <!-- Wing leading-edge highlight -->
      <line x1="4" y1="-6" x2="-27" y2="20"
        stroke="rgba(255,255,255,0.55)" stroke-width="0.7"/>

      <!-- Winglet (small vertical fin at wing tip) -->
      <path d="M-27,20 L-25.5,26 L-23.5,20 Z"
        fill="rgba(200,200,215,0.90)"/>

      <!-- ── Engine nacelle (under wing, at ~60% span) ── -->
      <!-- Main body -->
      <rect x="-23" y="14.5" width="16" height="6.5" rx="3.2"
        fill="rgba(175,175,192,0.96)"/>
      <!-- Intake ring (front) -->
      <circle cx="-7" cy="17.75" r="3.2"
        fill="rgba(138,138,158,0.93)"/>
      <!-- Intake inner dark -->
      <circle cx="-7" cy="17.75" r="1.8"
        fill="rgba(80,80,100,0.85)"/>
      <!-- Pylon (attaches engine to wing) -->
      <rect x="-16" y="10.5" width="4" height="4.5" rx="0.8"
        fill="rgba(200,200,215,0.70)"/>
      <!-- Exhaust nozzle (back of engine) -->
      <ellipse cx="-23" cy="17.75" rx="2.4" ry="3"
        fill="rgba(120,120,138,0.90)"/>

      <!-- ── Vertical tail fin ── -->
      <path d="M-30,-6 C-31,-6 -33,-11 -36,-22 L-38,-6 Z"
        fill="rgba(222,222,234,0.96)"/>
      <!-- Fin leading edge highlight -->
      <line x1="-30" y1="-6" x2="-36" y2="-22"
        stroke="rgba(255,255,255,0.40)" stroke-width="0.6"/>

      <!-- ── Horizontal stabilizer (small rear wing) ── -->
      <path d="M-31,-6 L-37,-6 L-44,2.5 L-37,6 L-31,6 Z"
        fill="rgba(216,216,230,0.93)"/>

      <!-- ── Passenger windows (small ovals along fuselage) ── -->
      <!-- Cockpit: slightly larger, distinct blue -->
      <rect x="21.5" y="-8.0" width="6" height="2.6" rx="1.2"
        fill="#6AB8D8" opacity="0.90"/>
      <!-- Window row -->
      <rect x="12"  y="-8.0" width="5" height="2.3" rx="1.05"
        fill="#88C8EC" opacity="0.83"/>
      <rect x="4"   y="-8.0" width="5" height="2.3" rx="1.05"
        fill="#88C8EC" opacity="0.83"/>
      <rect x="-4"  y="-7.8" width="5" height="2.3" rx="1.05"
        fill="#88C8EC" opacity="0.76"/>
      <rect x="-12" y="-7.5" width="5" height="2.3" rx="1.05"
        fill="#88C8EC" opacity="0.65"/>

      <!-- ── Airline livery stripe (thin horizontal accent) ── -->
      <path d="M27,-0.8 L-36,-0.8 L-36,1.2 L27,1.2 Z"
        fill="rgba(35,82,170,0.20)"/>
      <!-- Stripe highlight on nose area -->
      <path d="M27,-0.8 L16,-0.8 L16,1.2 L27,1.2 Z"
        fill="rgba(35,82,170,0.12)"/>

      <!-- ── Navigation lights ── -->
      <!-- Port wing tip: red -->
      <circle cx="-26.5" cy="20" r="1.4" fill="#FF2222" opacity="0.85"/>
      <circle cx="-26.5" cy="20" r="3"   fill="#FF2222" opacity="0.12"/>
      <!-- Tail: white beacon (subtle) -->
      <circle cx="-36"  cy="-22" r="1.0" fill="white"   opacity="0.60"/>
      <circle cx="-36"  cy="-22" r="2.2" fill="white"   opacity="0.08"/>
    </g>
  </g>

  <!-- ══════ Title ══════ -->
  <text x="400" y="108" text-anchor="middle" fill="white"
    font-family="-apple-system,'Helvetica Neue','Noto Sans KR',sans-serif"
    font-size="56" font-weight="800" letter-spacing="-2" opacity="0">
    다님
    <animate attributeName="opacity" from="0" to="1" dur="1.0s" begin="0.4s" fill="freeze"/>
  </text>

  <!-- ══════ Subtitle ══════ -->
  <text x="400" y="136" text-anchor="middle"
    fill="rgba(255,230,200,0.92)"
    font-family="-apple-system,'Helvetica Neue','Noto Sans KR',sans-serif"
    font-size="15" font-weight="400" opacity="0">
    세상의 모든 여행이 연결되는 곳
    <animate attributeName="opacity" from="0" to="1" dur="1.0s" begin="1.0s" fill="freeze"/>
  </text>

  <!-- ══════ Waves ══════ -->
  <!-- Layer 1: slow back wave -->
  <path fill="rgba(255,255,255,0.11)"
    d="M0,186 C100,168 200,200 300,186 C400,168 500,200 600,186 C700,168 800,186 800,186
       C900,168 1000,200 1100,186 C1200,168 1300,200 1400,186 C1500,168 1600,186 1600,186
       L1600,220 L0,220 Z">
    <animateTransform attributeName="transform" type="translate"
      from="0,0" to="-800,0" dur="14s" repeatCount="indefinite"/>
  </path>
  <!-- Layer 2: faster front wave -->
  <path fill="rgba(255,255,255,0.20)"
    d="M0,198 C66,186 134,208 200,198 C266,186 334,208 400,198 C466,186 534,208 600,198
       C666,186 734,208 800,198 C866,186 934,208 1000,198 C1066,186 1134,208 1200,198
       C1266,186 1334,208 1400,198 C1466,186 1534,208 1600,198
       L1600,220 L0,220 Z">
    <animateTransform attributeName="transform" type="translate"
      from="0,0" to="-800,0" dur="9s" repeatCount="indefinite"/>
  </path>
</svg>
